<svg xmlns="http://www.w3.org/2000/svg" width="200" height="200" preserveAspectRatio="xMidYMid meet" version="1.0" viewBox="0 0 150000 150000" zoomAndPan="magnify">
  <defs>
    <clipPath id="a">
      <path d="M4000 88000h66000v668H4000Zm39960 668H70000v4160H43960Zm-39960 0h766v4160H4000Zm0 4160h66000V93000H4000Zm0 0" clip-rule="nonzero"/>
    </clipPath>
  </defs>
  <path d="M50785 102940h-937v-3578h-4906v3578h-938V94800h938v3672h4906V94800h937Zm13779-7250H59970v2672h4110v907h-4110v2780h4750v890h-5688v-8147h5532Zm13160 7250-1687-2593c-230 11-415 15-547 15h-2157v2578h-937V94800h3094c1020 0 1812 242 2375 719 562 468 843 1140 843 2015 0 668-164 1227-484 1672-312 450-762 773-1344 969l1907 2765Zm-4390-3468h2156c750 0 1320-160 1718-485 395-332 594-812 594-1437 0-613-200-1078-594-1390-398-313-968-470-1718-470h-2157ZM86598 94800h3437c820 0 1461 183 1922 547 469 355 703 851 703 1484 0 490-137 890-406 1210-262 327-625 540-1094 640 594 90 1050 310 1375 676 320 367 485 824 485 1375 0 699-262 1246-782 1640-523 387-1242 578-2156 578h-3484Zm937 890v2610h2453c551 0 977-110 1282-328 300-227 453-555 453-985 0-414-153-734-453-953-305-226-730-344-1282-344Zm0 3500v2860h2453c664 0 1180-125 1547-375 363-250 547-610 547-1078 0-438-187-782-562-1032-368-250-875-375-1532-375Zm18339 1688h-4453l-900 2062h-981l3657-8140h968l3640 8140h-1015Zm-390-890-1844-4141-1813 4140Zm10316 2062h3562v890h-4500V94800h937Zm13287-7297c969 0 1828 258 2578 766l-390 875a3984 3984 0 00-2250-688c-524 0-946 94-1266 281-312 188-469 453-469 797 0 324 110 594 328 813 227 218 516 382 860 484l1110 370c394 136 757 277 1093 420 355 150 636 384 855 704 225 325 342 715 342 1172 1 680-272 1220-810 1625-544 407-1260 610-2140 610a4550 4550 0 01-1689-328 4523 4523 0 01-1422-907l422-843c363 367 790 652 1281 859 488 200 960 297 1422 297 594 0 1055-113 1390-344 344-227 516-535 516-922a1100 1100 0 00-250-720 1696 1696 0 00-656-483 7111 7111 0 00-890-312 14699 14699 0 01-968-313 5178 5178 0 01-890-406 1866 1866 0 01-657-670c-169-282-250-618-250-1017 0-633 253-1144 764-1530 520-384 1203-580 2047-580Zm0 0" fill="#000" fill-opacity="1"/>
  <g clip-path="url(#a)">
    <path d="M4950 88906h64812v3336H4949Zm0 0" fill="#000" fill-opacity="1" fill-rule="nonzero"/>
  </g>
  <path d="M76982 40170c1156 3274 898 6548-766 9829a3970 3970 0 01-562 844c-220 250-528 418-922 500a762 762 0 01-703-188c-200-176-274-379-220-610 157-445 313-882 470-1312a8080 8080 0 01 280-625c821-2270 970-4515 438-6734-574-2531-2090-4191-4546-4984a16324 16324 0 00-4329-688c-1449-40-2921 70-4421 328a65326 65326 0 00-13391 4000 105847 105847 0 00-19172 10172A72635 72635 0 00 15044 63030a40610 40610 0 00-3937 5203 26706 26706 0 00-2828 5875c-688 2086-1016 4180-985 6282 82 2280 657 4230 1720 5843 1070 1602 2507 2770 4312 3500 1812 739 3847 926 6109 563 2906-492 5656-1528 8250-3110a30885 30885 0 00 4297-3062 56756 56756 0 00 3860-3610 69290 69290 0 00 8000-10093 37081 37081 0 00 3405-6755 1810 1810 0 00 110-280c220-550 457-1096 720-1627 413-727 1077-1047 1983-953 550 63 851 384 906 954a6760 6760 0 01-484 2500c-2000 5720-4180 11383-6530 16984-56 137-107 274-158 407-136 262-250 524-343 780a866 866 0 00-90 236 2882 2882 0 00-230 1000c0 125 40 227 126 297 94 63 207 121 344 172a917 917 0 01 389 234c38 0 68 17 93 48 70 74 133 153 188 235 50 74 23 180-78 312a841 841 0 01-344 313c-168 85-340 125-515 125-511-50-914 62-1203 343a3281 3281 0 00-703 1047 186360 186360 0 01-2187 4470 89402 89402 0 01-5140 9110 41603 41603 0 01-4000 5234 16154 16154 0 01-5423 4062 9323 9323 0 01-3485 890c-1367 95-2480-234-3344-984-854-750-1335-1808-1436-3170a8737 8737 0 01 468-3500 18155 18155 0 01 3640-6016c4095-4680 8978-8164 14657-10453a33604 33604 0 01 2843-984 1030 1030 0 01 360-126 2412 2412 0 00 1546-1296c290-695 594-1390 907-2080a42382 42382 0 00 2218-5607c30-62 30-113-1-156-30-30-47-54-47-77-293 53-523 170-687 359-168 179-336 370-500 577a2553 2553 0 01-266 390 68188 68188 0 01-6578 6860c-2855 2594-6023 4598-9500 6016a24223 24223 0 01-5983 1562 18860 18860 0 01-6016-218c-2311-470-4264-1586-5860-3344-1584-1750-2537-3957-2860-6625a17007 17007 0 01 189-4922c300-1626 797-3228 1484-4814A32317 32317 0 01 9220 66900a45604 45604 0 01 3547-4580A73437 73437 0 01 28310 48970a112980 112980 0 01 12812-7189 93633 93633 0 01 13610-5250 43653 43653 0 01 6234-1437 32626 32626 0 01 6344-375c2219 74 4297 586 6234 1530 1676 856 2820 2165 3438 3923ZM38138 87578c50-200 23-360-78-484-106-114-250-140-438-78a16900 16900 0 00-1234 437c-4855 2133-9133 5145-12828 9031a22475 22475 0 00-3438 4625c-718 1188-1156 2582-1312 4188v172a4830 4830 0 00 0 828c133 1207 550 2020 1250 2437 695 414 1629 383 2797-93a13727 13727 0 00 4422-3240 35082 35082 0 00 4203-5400 78775 78775 0 00 3375-5766 141420 141420 0 00 3000-5953l280-670v-30Zm0 0" fill="#000" fill-opacity="1"/>
  <path d="M59935 78420c406-394 738-616 1000-671 257-50 425-8 500 125 82 137 35 320-141 547a18250 18250 0 01-3547 3300c-1312 920-2664 1450-4047 1599-1387 149-2219-610-2500-2265-219-1645 774-4992 2985-10047 2207-5052 3953-9192 5234-12423 100-281 260-531 480-750 290-290 630-360 1030-203 130 62 261 164 390 297 130 125 172 360 121 703-5680 13459-8430 20776-8250 21952 188 1180 945 1469 2281 875 1344-594 2375-1195 3094-1812 727-625 1180-1032 1360-1220Zm0 0" fill="#000" fill-opacity="1"/>
  <path d="M63070 82733h-47c-1742-20-2883-406-3437-1156-550-750-532-1750 62-3000a9648 9648 0 01 1906-2484 4400 4400 0 01 813-578c281-145 594-220 937-220 207-30 442 9 703 110 82 31 164 63 250 94a1730 1730 0 00 594-203 788 788 0 01 203-78 2997 2997 0 01 1250-203h563c707 105 1238 402 1594 890 363 492 492 1078 390 1766a3560 3560 0 01-390 1187c-1387 2480-3149 3774-5282 3875Zm2844-6437c-950-40-1793 230-2532 812-742 586-1293 1258-1656 2016-355 750-453 1371-297 1860 164 480 672 616 1516 406 945-290 1781-832 2500-1625 726-790 1176-1540 1344-2250 164-720-125-1125-875-1220Zm83877-27686a21118 21118 0 00-2937-2970 23042 23042 0 00-3390-2359c-3044-1707-6180-2625-9407-2750-3219-125-6469 387-9750 1531-3281 1137-6516 2766-9703 4891-3188 2125-6262 4586-9220 7375a95465 95465 0 00-8327 8938 107550 107550 0 00-7016 9610c-2086 3240-3855 6359-5312 9359a142297 142297 0 00-1860 4546c-280 695-562 1390-843 2078a3200 3200 0 01-141 340 6590 6590 0 01-328 780 905 905 0 01-470 420 823 823 0 01-624 0c-180-65-277-206-297-425 0-304 20-600 63-890a43730 43730 0 00 437-3203c102-1062 188-2132 250-3203 30-312 50-632 63-953 20-148 39-297 62-453 133-1842 250-3689 344-5545 39-875 55-1742 47-2610v-1030a3300 3300 0 00-47-688 5615 5615 0 01-78-500 3932 3932 0 00-140-734 1601 1601 0 00-360-657 1217 1217 0 00-735 360c-180 186-328 405-453 655a4742 4742 0 01-234 360 31157 31157 0 00-2250 3920c-492 980-980 1954-1470 2922a826557 826557 0 00-2061 4157c-230 459-477 908-735 1345a3330 3330 0 01-437 594c-356 290-703 379-1047 266-344-118-535-403-578-860-50-687-35-1386 47-2093 93-1300 218-2600 375-3905 117-843 226-1687 328-2530A796413 796413 0 00 73400 59070a7730 7730 0 01 234-1311c70-313 266-520 578-625a558 558 0 01 406 30c125 60 188 170 188 327 0 344-24 700-63 1062a142645 142645 0 01-672 7220c-280 2448-593 4902-937 7359-280 2118-547 4200-797 6250-23 169-43 329-62 485-55 437-106 875-157 1312a220 220 0 00 47 140c31 32 63 50 94 64a410 410 0 00 125-31c62-20 98-50 110-80 218-394 430-797 640-1203 394-780 785-1562 1172-2344a1375700 1375700 0 01 2375-4703 26427 26427 0 01 1812-2968c313-466 680-873 1110-1216 601-440 1164-580 1687-423 520 148 910 570 1172 1265 207 650 328 1313 360 2000 62 844 78 1696 46 2547a68666 68666 0 01-140 2532 3150 3150 0 00-32 468c-86 1492-195 3000-328 4532-43 675-90 1363-140 2062 187-137 320-266 406-390 94-126 156-243 187-344a232 232 0 01 80-141c1311-3114 2975-6330 5000-9642a95894 95894 0 01 6874-9796 95363 95363 0 01 8280-9125c2958-2875 6040-5426 9250-7657 3220-2237 6477-4020 9782-5342 3313-1320 6598-2055 9860-2204 3257-156 6425 430 9500 1750 3070 1313 5972 3493 8703 6532 30 43 54 90 78 140 270 242 468 540 593 890a380 380 0 01-78 345 377 377 0 01-297 172 703 703 0 01-375-94 1324 1324 0 01-280-313Zm0 0" fill="#000" fill-opacity="1"/>
  <path d="M92855 88800h41415v3360H92855Zm0 0" fill="#000" fill-opacity="1" fill-rule="nonzero"/>
  <path d="M107466 78560c-218 187-449 360-687 516-774 480-1465 860-2078 1140a26960 26960 0 01-2188 844c-1250 367-2054 281-2406-250-355-540-414-1290-172-2250 344-1375 540-2379 594-3016 50-632-164-851-640-656-470 200-1330 860-2580 1984a23360 23360 0 00-4452 5140 2081 2081 0 01-578 640c-227 170-508 250-844 250-320 0-555-80-703-250-145-162-148-393-16-686 710-1550 1434-3097 2172-4640 1270-2657 2524-5301 3766-7938 914-1976 1828-3957 2734-5937a227880 227880 0 00 1610-3485c50-101 110-207 172-312a2300 2300 0 01 156-390c70-134 148-282 234-438 70-125 207-227 406-313 196-94 395-148 594-172 195-20 348-8 453 30 157 119 242 236 266 360a584 584 0 01-74 360 213 213 0 00-30 125 39630 39630 0 01-765 2063 160426 160426 0 01-4985 10843c-125 243-277 528-453 860-273 480-523 953-750 1422-230 460-310 765-234 922 82 148 440 27 1078-360 195-133 375-270 530-406 500-332 993-648 1485-953a2933 2933 0 01 1438-470c1258-81 1969 493 2125 1720 62 492 47 976-47 1453-94 480-210 953-344 1422-23 125-47 258-78 390-210 813-152 1282 172 1407 332 117 797 47 1390-203 594-250 1196-555 1813-922l1094-547c320-156 562-223 719-203 280 54 410 172 390 360-23 179-120 358-297 546Zm0 0" fill="#000" fill-opacity="1"/>
  <path d="M113718 79357a12420 12420 0 01-2265 2094 7585 7585 0 01-2969 1296c-1105 220-1957 137-2562-250-614-382-739-1238-375-2562a16630 16630 0 01 1984-3890c198-270 472-458 840-563a768 768 0 01 686 140c195 149 273 336 234 563-187 430-390 860-608 1297-211 430-352 710-422 844a8245 8245 0 00-875 2406c0 480 640 512 1922 94 1280-426 2523-1196 3734-2313 1208-1125 1786-1453 1735-984-54 450-402 1060-1047 1817Zm-3125-6016c-62 55-187 110-375 172a3560 3560 0 01-593 140c-211 32-375 0-500-93-117-94-121-285-16-578 195-500 399-938 610-1313 206-382 476-804 812-1265a1230 1230 0 01 710-328 780 780 0 01 628 203c164 148 219 350 156 610a5680 5680 0 01-1422 2452Zm0 0" fill="#000" fill-opacity="1"/>
  <path d="M124825 78247c-1605 1899-3180 3297-4718 4204-1543 898-3196 1195-4953 890-1750-312-2470-1492-2157-3547 220-1030 512-2035 875-3015a660780 660780 0 01 2813-6844c312-813 640-1629 984-2453 82-188 160-367 235-547 132-300 270-602 406-906 187-532-27-805-640-828h-1548c-180 23-360 43-547 62-312 24-625 30-937 30-305 0-586-70-844-217a362 362 0 01-172-141 400 400 0 01-62-220 686 686 0 01 110-171 358 358 0 01 202-140c270-102 547-180 828-235 750-30 1490-62 2220-93h750c476 0 831-16 1062-47a856 856 0 00 578-375c144-220 312-551 500-1000 113-240 250-500 406-782 395-843 785-1703 1172-2578 187-394 375-780 562-1156 157-363 400-648 735-860 320-156 601-140 844 48a450 450 0 01 171 234c40 105 63 200 63 280 0 470-120 930-360 1376a4890 4890 0 01-156 344 36030 36030 0 01-500 1312 51264 51264 0 00-1000 2500c-86 157-90 297-15 422 82 118 203 172 360 172 850 30 1687 47 2500 47h1265c1312 24 1836 203 1578 547-180 210-370 328-578 360a1890 1890 0 01-640-16h-392c-1343 86-2680 140-4000 172-617 0-1023 273-1218 812-220 530-430 1063-625 1594a69750 69750 0 00-860 2030c-260 626-523 1259-780 1890a169620 169620 0 00-1985 4830 21784 21784 0 00-938 3234c-500 2012 274 2780 2328 2313 2008-477 4118-1930 6328-4360 958-613 1208-336 750 828Zm0 0" fill="#000" fill-opacity="1"/>
  <path d="M134055 80029a10307 10307 0 01-2437 1765c-918 480-1688 797-2313 953a9520 9520 0 01-1922 250c-1054 55-2023-93-2906-437-1457-582-1960-1703-1515-3360 418-1425 1265-2538 2546-3343 1282-800 2610-1192 3985-1172h31c344-20 672 8 984 78 532 188 868 500 1016 938 145 430 47 906-297 1437-762 1156-1805 1805-3125 1938a8387 8387 0 01-2530-125 540 540 0 00-423 125 608 608 0 00-203 390c-250 1031 66 1696 953 1985 1070 375 2191 375 3360 0 1340-414 2610-1207 3820-2375 1205-1164 1904-1707 2091-1625 188 74 242 296 172 671-168 586-600 1220-1297 1907Zm-7656-2890a772 772 0 00-156 280c-31 94 4 184 110 266 425 242 882 328 1374 266a2270 2270 0 00 1250-547c344-313 488-688 438-1125-32-157-118-254-250-297a900 900 0 00-390-30 4612 4612 0 00-2376 1186Zm0 0" fill="#000" fill-opacity="1"/>
</svg>
