<svg xmlns="http://www.w3.org/2000/svg" xmlns:xlink="http://www.w3.org/1999/xlink" width="100"  viewBox="0 0 30 30.000001" height="40" preserveAspectRatio="xMidYMid meet" version="1.0"><defs><g/><clipPath id="00173643f7"><path d="M 0.484375 5 L 20 5 L 20 24 L 0.484375 24 Z M 0.484375 5 " clip-rule="nonzero"/></clipPath></defs><g fill="#e21661" fill-opacity="1"><g transform="translate(9.869965, 19.116577)"><g><path d="M 5.390625 -2.4375 C 5.304688 -2.175781 5.132812 -1.875 4.875 -1.53125 C 4.613281 -1.1875 4.289062 -0.960938 3.90625 -0.859375 C 3.519531 -0.765625 3.179688 -0.78125 2.890625 -0.90625 C 2.609375 -1.03125 2.457031 -1.367188 2.4375 -1.921875 C 2.113281 -1.296875 1.804688 -0.894531 1.515625 -0.71875 C 1.222656 -0.539062 0.921875 -0.472656 0.609375 -0.515625 C 0.253906 -0.578125 0.015625 -0.71875 -0.109375 -0.9375 C -0.242188 -1.15625 -0.289062 -1.40625 -0.25 -1.6875 C -0.207031 -1.976562 -0.117188 -2.253906 0.015625 -2.515625 C 0.117188 -2.710938 0.265625 -2.894531 0.453125 -3.0625 C 0.640625 -3.238281 0.835938 -3.375 1.046875 -3.46875 C 1.296875 -3.59375 1.546875 -3.648438 1.796875 -3.640625 C 2.046875 -3.640625 2.316406 -3.554688 2.609375 -3.390625 C 2.617188 -3.390625 2.625 -3.398438 2.625 -3.421875 C 2.625 -3.441406 2.628906 -3.472656 2.640625 -3.515625 C 2.660156 -3.554688 2.6875 -3.59375 2.71875 -3.625 C 2.8125 -3.695312 2.921875 -3.734375 3.046875 -3.734375 C 3.179688 -3.734375 3.285156 -3.664062 3.359375 -3.53125 C 3.367188 -3.363281 3.347656 -3.148438 3.296875 -2.890625 C 3.191406 -2.316406 3.191406 -1.90625 3.296875 -1.65625 C 3.410156 -1.40625 3.597656 -1.285156 3.859375 -1.296875 C 4.128906 -1.316406 4.472656 -1.578125 4.890625 -2.078125 C 5.316406 -2.585938 5.484375 -2.707031 5.390625 -2.4375 Z M 0.703125 -1.109375 C 0.847656 -1.003906 1.015625 -1.015625 1.203125 -1.140625 C 1.390625 -1.273438 1.570312 -1.460938 1.75 -1.703125 C 1.925781 -1.953125 2.070312 -2.195312 2.1875 -2.4375 C 2.3125 -2.6875 2.378906 -2.875 2.390625 -3 C 2.035156 -3.1875 1.726562 -3.21875 1.46875 -3.09375 C 1.21875 -2.96875 1.015625 -2.757812 0.859375 -2.46875 C 0.710938 -2.1875 0.625 -1.910156 0.59375 -1.640625 C 0.5625 -1.378906 0.597656 -1.203125 0.703125 -1.109375 Z M 0.703125 -1.109375 "/></g></g></g><g fill="#e21661" fill-opacity="1"><g transform="translate(15.747078, 19.116577)"><g><path d="M 5.390625 -2.4375 C 5.304688 -2.175781 5.132812 -1.875 4.875 -1.53125 C 4.613281 -1.1875 4.289062 -0.960938 3.90625 -0.859375 C 3.519531 -0.765625 3.179688 -0.78125 2.890625 -0.90625 C 2.609375 -1.03125 2.457031 -1.367188 2.4375 -1.921875 C 2.113281 -1.296875 1.804688 -0.894531 1.515625 -0.71875 C 1.222656 -0.539062 0.921875 -0.472656 0.609375 -0.515625 C 0.253906 -0.578125 0.015625 -0.71875 -0.109375 -0.9375 C -0.242188 -1.15625 -0.289062 -1.40625 -0.25 -1.6875 C -0.207031 -1.976562 -0.117188 -2.253906 0.015625 -2.515625 C 0.117188 -2.710938 0.265625 -2.894531 0.453125 -3.0625 C 0.640625 -3.238281 0.835938 -3.375 1.046875 -3.46875 C 1.296875 -3.59375 1.546875 -3.648438 1.796875 -3.640625 C 2.046875 -3.640625 2.316406 -3.554688 2.609375 -3.390625 C 2.617188 -3.390625 2.625 -3.398438 2.625 -3.421875 C 2.625 -3.441406 2.628906 -3.472656 2.640625 -3.515625 C 2.660156 -3.554688 2.6875 -3.59375 2.71875 -3.625 C 2.8125 -3.695312 2.921875 -3.734375 3.046875 -3.734375 C 3.179688 -3.734375 3.285156 -3.664062 3.359375 -3.53125 C 3.367188 -3.363281 3.347656 -3.148438 3.296875 -2.890625 C 3.191406 -2.316406 3.191406 -1.90625 3.296875 -1.65625 C 3.410156 -1.40625 3.597656 -1.285156 3.859375 -1.296875 C 4.128906 -1.316406 4.472656 -1.578125 4.890625 -2.078125 C 5.316406 -2.585938 5.484375 -2.707031 5.390625 -2.4375 Z M 0.703125 -1.109375 C 0.847656 -1.003906 1.015625 -1.015625 1.203125 -1.140625 C 1.390625 -1.273438 1.570312 -1.460938 1.75 -1.703125 C 1.925781 -1.953125 2.070312 -2.195312 2.1875 -2.4375 C 2.3125 -2.6875 2.378906 -2.875 2.390625 -3 C 2.035156 -3.1875 1.726562 -3.21875 1.46875 -3.09375 C 1.21875 -2.96875 1.015625 -2.757812 0.859375 -2.46875 C 0.710938 -2.1875 0.625 -1.910156 0.59375 -1.640625 C 0.5625 -1.378906 0.597656 -1.203125 0.703125 -1.109375 Z M 0.703125 -1.109375 "/></g></g></g><g fill="#e21661" fill-opacity="1"><g transform="translate(21.624191, 19.116577)"><g><path d="M 2.46875 -1.921875 C 2.375 -1.722656 2.207031 -1.5 1.96875 -1.25 C 1.726562 -1.007812 1.457031 -0.851562 1.15625 -0.78125 C 0.863281 -0.71875 0.582031 -0.820312 0.3125 -1.09375 C 0.195312 -1.21875 0.113281 -1.359375 0.0625 -1.515625 C 0.0195312 -1.671875 0.00390625 -1.828125 0.015625 -1.984375 C 0.015625 -2.023438 0.015625 -2.078125 0.015625 -2.140625 C 0.015625 -2.296875 0.0195312 -2.476562 0.03125 -2.6875 C 0.0507812 -2.90625 0.0820312 -3.097656 0.125 -3.265625 C 0.175781 -3.441406 0.253906 -3.546875 0.359375 -3.578125 C 0.660156 -3.660156 0.828125 -3.554688 0.859375 -3.265625 C 0.859375 -3.179688 0.851562 -3.09375 0.84375 -3 C 0.84375 -2.945312 0.84375 -2.898438 0.84375 -2.859375 C 0.832031 -2.722656 0.820312 -2.585938 0.8125 -2.453125 C 0.8125 -2.347656 0.8125 -2.242188 0.8125 -2.140625 C 0.800781 -1.679688 0.898438 -1.40625 1.109375 -1.3125 C 1.328125 -1.226562 1.570312 -1.320312 1.84375 -1.59375 C 2.113281 -1.875 2.289062 -2.101562 2.375 -2.28125 C 2.46875 -2.46875 2.53125 -2.503906 2.5625 -2.390625 C 2.601562 -2.285156 2.570312 -2.128906 2.46875 -1.921875 Z M 0.796875 -4.5625 C 0.753906 -4.53125 0.703125 -4.507812 0.640625 -4.5 C 0.585938 -4.488281 0.535156 -4.492188 0.484375 -4.515625 C 0.453125 -4.546875 0.429688 -4.582031 0.421875 -4.625 C 0.410156 -4.675781 0.40625 -4.734375 0.40625 -4.796875 C 0.40625 -4.804688 0.410156 -4.816406 0.421875 -4.828125 C 0.421875 -4.890625 0.4375 -4.945312 0.46875 -5 C 0.53125 -5.15625 0.660156 -5.226562 0.859375 -5.21875 C 0.929688 -5.207031 0.984375 -5.175781 1.015625 -5.125 C 1.054688 -5.070312 1.066406 -5.015625 1.046875 -4.953125 C 1.003906 -4.796875 0.921875 -4.664062 0.796875 -4.5625 Z M 0.796875 -4.5625 "/></g></g></g><g fill="#e21661" fill-opacity="1"><g transform="translate(24.787064, 19.116577)"><g><path d="M 3.71875 -2.34375 C 3.769531 -2.363281 3.8125 -2.367188 3.84375 -2.359375 C 3.882812 -2.359375 3.910156 -2.347656 3.921875 -2.328125 C 3.941406 -2.304688 3.953125 -2.28125 3.953125 -2.25 C 3.953125 -2.226562 3.945312 -2.210938 3.9375 -2.203125 C 3.8125 -2.066406 3.664062 -1.921875 3.5 -1.765625 C 3.289062 -1.546875 3.078125 -1.328125 2.859375 -1.109375 C 2.640625 -0.890625 2.457031 -0.679688 2.3125 -0.484375 C 2.238281 -0.398438 2.242188 -0.316406 2.328125 -0.234375 C 2.460938 -0.078125 2.59375 0.132812 2.71875 0.40625 C 2.84375 0.675781 2.929688 0.960938 2.984375 1.265625 C 3.035156 1.566406 3.023438 1.84375 2.953125 2.09375 C 2.890625 2.34375 2.738281 2.519531 2.5 2.625 C 2.125 2.757812 1.78125 2.726562 1.46875 2.53125 C 1.15625 2.34375 0.976562 2.050781 0.9375 1.65625 C 0.914062 1.28125 0.988281 0.925781 1.15625 0.59375 C 1.21875 0.457031 1.285156 0.328125 1.359375 0.203125 C 1.398438 0.117188 1.441406 0.046875 1.484375 -0.015625 C 1.554688 -0.140625 1.523438 -0.234375 1.390625 -0.296875 C 1.140625 -0.410156 0.882812 -0.453125 0.625 -0.421875 C 0.445312 -0.378906 0.28125 -0.382812 0.125 -0.4375 C 0.0703125 -0.46875 0.0390625 -0.503906 0.03125 -0.546875 C 0.0195312 -0.585938 0.03125 -0.628906 0.0625 -0.671875 C 0.1875 -0.796875 0.304688 -0.914062 0.421875 -1.03125 C 0.734375 -1.28125 1.019531 -1.582031 1.28125 -1.9375 C 1.539062 -2.300781 1.738281 -2.679688 1.875 -3.078125 C 1.882812 -3.117188 1.878906 -3.160156 1.859375 -3.203125 C 1.835938 -3.253906 1.8125 -3.296875 1.78125 -3.328125 C 1.664062 -3.410156 1.535156 -3.445312 1.390625 -3.4375 C 1.160156 -3.425781 0.945312 -3.347656 0.75 -3.203125 C 0.625 -3.117188 0.570312 -3.035156 0.59375 -2.953125 C 0.613281 -2.867188 0.65625 -2.785156 0.71875 -2.703125 C 0.78125 -2.628906 0.832031 -2.554688 0.875 -2.484375 C 0.875 -2.453125 0.859375 -2.421875 0.828125 -2.390625 C 0.804688 -2.359375 0.773438 -2.328125 0.734375 -2.296875 C 0.691406 -2.273438 0.65625 -2.257812 0.625 -2.25 C 0.488281 -2.21875 0.363281 -2.25 0.25 -2.34375 C 0.09375 -2.488281 0.0078125 -2.65625 0 -2.84375 C 0 -3.039062 0.0703125 -3.210938 0.21875 -3.359375 C 0.320312 -3.441406 0.4375 -3.515625 0.5625 -3.578125 C 0.769531 -3.679688 0.976562 -3.738281 1.1875 -3.75 C 1.40625 -3.769531 1.632812 -3.765625 1.875 -3.734375 C 2 -3.703125 2.117188 -3.648438 2.234375 -3.578125 C 2.492188 -3.429688 2.582031 -3.207031 2.5 -2.90625 C 2.394531 -2.601562 2.226562 -2.285156 2 -1.953125 C 1.78125 -1.617188 1.5625 -1.34375 1.34375 -1.125 C 1.3125 -1.101562 1.285156 -1.082031 1.265625 -1.0625 C 1.222656 -1.007812 1.1875 -0.96875 1.15625 -0.9375 C 1.125 -0.90625 1.113281 -0.867188 1.125 -0.828125 C 1.28125 -0.847656 1.410156 -0.835938 1.515625 -0.796875 C 1.628906 -0.753906 1.734375 -0.703125 1.828125 -0.640625 C 1.898438 -0.648438 2.007812 -0.722656 2.15625 -0.859375 C 2.300781 -0.992188 2.460938 -1.15625 2.640625 -1.34375 C 2.828125 -1.550781 3.015625 -1.742188 3.203125 -1.921875 C 3.398438 -2.109375 3.570312 -2.25 3.71875 -2.34375 Z M 1.875 2.34375 C 2.082031 2.425781 2.210938 2.390625 2.265625 2.234375 C 2.328125 2.085938 2.34375 1.882812 2.3125 1.625 C 2.289062 1.363281 2.25 1.113281 2.1875 0.875 C 2.132812 0.632812 2.085938 0.46875 2.046875 0.375 C 2.023438 0.34375 2 0.3125 1.96875 0.28125 C 1.945312 0.25 1.910156 0.222656 1.859375 0.203125 C 1.585938 0.554688 1.429688 0.953125 1.390625 1.390625 C 1.367188 1.597656 1.40625 1.785156 1.5 1.953125 C 1.59375 2.128906 1.71875 2.257812 1.875 2.34375 Z M 1.875 2.34375 "/></g></g></g><g clip-path="url(#00173643f7)"><g fill="#e21661" fill-opacity="1"><g transform="translate(0.826017, 19.073999)"><g><path d="M 17.9375 -13.109375 C 18.164062 -12.960938 18.242188 -12.757812 18.171875 -12.5 C 18.128906 -12.375 18.066406 -12.253906 17.984375 -12.140625 C 17.859375 -11.960938 17.707031 -11.800781 17.53125 -11.65625 C 16.71875 -10.96875 15.78125 -10.539062 14.71875 -10.375 C 14.488281 -10.34375 14.253906 -10.300781 14.015625 -10.25 C 13.910156 -10.226562 13.8125 -10.234375 13.71875 -10.265625 C 13.664062 -10.296875 13.640625 -10.335938 13.640625 -10.390625 C 13.640625 -10.410156 13.644531 -10.429688 13.65625 -10.453125 C 13.664062 -10.472656 13.679688 -10.488281 13.703125 -10.5 C 13.773438 -10.539062 13.851562 -10.566406 13.9375 -10.578125 C 14.039062 -10.597656 14.144531 -10.617188 14.25 -10.640625 C 14.332031 -10.648438 14.410156 -10.660156 14.484375 -10.671875 C 15.015625 -10.765625 15.5 -10.9375 15.9375 -11.1875 C 16.375 -11.445312 16.773438 -11.769531 17.140625 -12.15625 C 17.253906 -12.257812 17.34375 -12.382812 17.40625 -12.53125 C 17.46875 -12.707031 17.414062 -12.832031 17.25 -12.90625 C 17.039062 -12.976562 16.828125 -13.019531 16.609375 -13.03125 C 16.328125 -13.03125 16.054688 -13.03125 15.796875 -13.03125 C 15.679688 -13.03125 15.5625 -13.03125 15.4375 -13.03125 C 14.75 -13.03125 14.0625 -12.992188 13.375 -12.921875 C 12.6875 -12.847656 12 -12.757812 11.3125 -12.65625 C 10.21875 -12.519531 9.128906 -12.351562 8.046875 -12.15625 C 8.046875 -12.007812 8.046875 -11.863281 8.046875 -11.71875 C 8.046875 -9.863281 8.046875 -8.019531 8.046875 -6.1875 C 8.046875 -5.570312 8.046875 -4.960938 8.046875 -4.359375 C 8.046875 -3.765625 8.046875 -3.171875 8.046875 -2.578125 C 8.046875 -0.878906 8.046875 0.828125 8.046875 2.546875 C 8.046875 2.992188 8.039062 3.445312 8.03125 3.90625 C 8.03125 4.144531 7.910156 4.242188 7.671875 4.203125 C 7.554688 4.191406 7.492188 4.128906 7.484375 4.015625 C 7.484375 3.972656 7.476562 3.925781 7.46875 3.875 C 7.445312 3.65625 7.4375 3.429688 7.4375 3.203125 C 7.4375 1.734375 7.4375 0.257812 7.4375 -1.21875 C 7.4375 -4.820312 7.4375 -8.429688 7.4375 -12.046875 C 7.425781 -12.035156 7.410156 -12.03125 7.390625 -12.03125 C 7.359375 -12.019531 7.328125 -12.015625 7.296875 -12.015625 C 6.429688 -11.835938 5.578125 -11.632812 4.734375 -11.40625 C 3.890625 -11.175781 3.054688 -10.898438 2.234375 -10.578125 C 1.941406 -10.472656 1.65625 -10.351562 1.375 -10.21875 C 1.28125 -10.175781 1.195312 -10.140625 1.125 -10.109375 C 0.957031 -10.046875 0.832031 -9.941406 0.75 -9.796875 C 0.675781 -9.703125 0.578125 -9.648438 0.453125 -9.640625 C 0.328125 -9.640625 0.210938 -9.675781 0.109375 -9.75 C 0.0351562 -9.820312 0.03125 -9.898438 0.09375 -9.984375 C 0.15625 -10.066406 0.226562 -10.140625 0.3125 -10.203125 C 0.40625 -10.265625 0.503906 -10.320312 0.609375 -10.375 C 1.109375 -10.632812 1.617188 -10.859375 2.140625 -11.046875 C 3.460938 -11.523438 4.804688 -11.914062 6.171875 -12.21875 C 6.597656 -12.300781 7.019531 -12.382812 7.4375 -12.46875 C 7.4375 -12.550781 7.441406 -12.632812 7.453125 -12.71875 C 7.472656 -12.832031 7.523438 -12.910156 7.609375 -12.953125 C 7.703125 -12.992188 7.800781 -12.988281 7.90625 -12.9375 C 7.988281 -12.894531 8.03125 -12.828125 8.03125 -12.734375 C 8.03125 -12.679688 8.03125 -12.628906 8.03125 -12.578125 C 9.039062 -12.742188 10.050781 -12.898438 11.0625 -13.046875 C 12.125 -13.191406 13.1875 -13.304688 14.25 -13.390625 C 15.070312 -13.453125 15.898438 -13.460938 16.734375 -13.421875 C 16.992188 -13.398438 17.257812 -13.359375 17.53125 -13.296875 C 17.675781 -13.265625 17.8125 -13.203125 17.9375 -13.109375 Z M 17.9375 -13.109375 "/></g></g></g></g></svg>