<svg xmlns="http://www.w3.org/2000/svg" xmlns:xlink="http://www.w3.org/1999/xlink" width="1560" zoomAndPan="magnify" viewBox="0 0 1170 540.000001" height="720" preserveAspectRatio="xMidYMid meet" version="1.0"><defs><g/><clipPath id="b63b1bb87c"><path d="M 1.082031 0 L 1168.917969 0 L 1168.917969 539 L 1.082031 539 Z M 1.082031 0 " clip-rule="nonzero"/></clipPath></defs><g clip-path="url(#b63b1bb87c)"><path fill="#ffffff" d="M 1.082031 0 L 1168.917969 0 L 1168.917969 546.488281 L 1.082031 546.488281 Z M 1.082031 0 " fill-opacity="1" fill-rule="nonzero"/><path fill="#ffffff" d="M 1.082031 0 L 1168.917969 0 L 1168.917969 539 L 1.082031 539 Z M 1.082031 0 " fill-opacity="1" fill-rule="nonzero"/><path fill="#ffffff" d="M 1.082031 0 L 1168.917969 0 L 1168.917969 539 L 1.082031 539 Z M 1.082031 0 " fill-opacity="1" fill-rule="nonzero"/></g><g fill="#000000" fill-opacity="1"><g transform="translate(305.034203, 384.904772)"><g><path d="M 204.5625 -92.921875 C 201.25 -82.796875 194.679688 -71.195312 184.859375 -58.125 C 175.035156 -45.050781 162.769531 -36.644531 148.0625 -32.90625 C 133.363281 -29.164062 120.648438 -29.675781 109.921875 -34.4375 C 99.191406 -39.195312 93.285156 -51.941406 92.203125 -72.671875 C 80.023438 -49.054688 68.421875 -33.929688 57.390625 -27.296875 C 46.367188 -20.671875 34.890625 -18.140625 22.953125 -19.703125 C 9.460938 -21.867188 0.335938 -27.109375 -4.421875 -35.421875 C -9.191406 -43.742188 -10.789062 -53.359375 -9.21875 -64.265625 C -7.65625 -75.179688 -4.34375 -85.640625 0.71875 -95.640625 C 4.695312 -103.109375 10.210938 -110.035156 17.265625 -116.421875 C 24.316406 -122.816406 31.695312 -127.820312 39.40625 -131.4375 C 48.9375 -136.257812 58.519531 -138.550781 68.15625 -138.3125 C 77.800781 -138.070312 88.109375 -134.875 99.078125 -128.71875 C 99.316406 -128.476562 99.4375 -128.722656 99.4375 -129.453125 C 99.4375 -130.535156 99.707031 -131.890625 100.25 -133.515625 C 100.789062 -135.140625 101.722656 -136.4375 103.046875 -137.40625 C 106.660156 -140.050781 110.9375 -141.375 115.875 -141.375 C 120.820312 -141.375 124.625 -138.90625 127.28125 -133.96875 C 127.757812 -127.582031 127.097656 -119.445312 125.296875 -109.5625 C 121.316406 -87.863281 121.3125 -72.253906 125.28125 -62.734375 C 129.257812 -53.210938 136.28125 -48.78125 146.34375 -49.4375 C 156.414062 -50.101562 169.46875 -60.046875 185.5 -79.265625 C 201.53125 -98.492188 207.882812 -103.046875 204.5625 -92.921875 Z M 26.578125 -41.9375 C 32.117188 -37.96875 38.472656 -38.515625 45.640625 -43.578125 C 52.816406 -48.640625 59.71875 -55.804688 66.34375 -65.078125 C 72.976562 -74.359375 78.554688 -83.640625 83.078125 -92.921875 C 87.597656 -102.203125 90.097656 -109.070312 90.578125 -113.53125 C 77.078125 -120.769531 65.503906 -122.007812 55.859375 -117.25 C 46.222656 -112.488281 38.539062 -104.710938 32.8125 -93.921875 C 27.082031 -83.128906 23.675781 -72.640625 22.59375 -62.453125 C 21.507812 -52.273438 22.835938 -45.4375 26.578125 -41.9375 Z M 26.578125 -41.9375 "/></g></g></g><g fill="#000000" fill-opacity="1"><g transform="translate(527.781739, 384.904772)"><g><path d="M 204.5625 -92.921875 C 201.25 -82.796875 194.679688 -71.195312 184.859375 -58.125 C 175.035156 -45.050781 162.769531 -36.644531 148.0625 -32.90625 C 133.363281 -29.164062 120.648438 -29.675781 109.921875 -34.4375 C 99.191406 -39.195312 93.285156 -51.941406 92.203125 -72.671875 C 80.023438 -49.054688 68.421875 -33.929688 57.390625 -27.296875 C 46.367188 -20.671875 34.890625 -18.140625 22.953125 -19.703125 C 9.460938 -21.867188 0.335938 -27.109375 -4.421875 -35.421875 C -9.191406 -43.742188 -10.789062 -53.359375 -9.21875 -64.265625 C -7.65625 -75.179688 -4.34375 -85.640625 0.71875 -95.640625 C 4.695312 -103.109375 10.210938 -110.035156 17.265625 -116.421875 C 24.316406 -122.816406 31.695312 -127.820312 39.40625 -131.4375 C 48.9375 -136.257812 58.519531 -138.550781 68.15625 -138.3125 C 77.800781 -138.070312 88.109375 -134.875 99.078125 -128.71875 C 99.316406 -128.476562 99.4375 -128.722656 99.4375 -129.453125 C 99.4375 -130.535156 99.707031 -131.890625 100.25 -133.515625 C 100.789062 -135.140625 101.722656 -136.4375 103.046875 -137.40625 C 106.660156 -140.050781 110.9375 -141.375 115.875 -141.375 C 120.820312 -141.375 124.625 -138.90625 127.28125 -133.96875 C 127.757812 -127.582031 127.097656 -119.445312 125.296875 -109.5625 C 121.316406 -87.863281 121.3125 -72.253906 125.28125 -62.734375 C 129.257812 -53.210938 136.28125 -48.78125 146.34375 -49.4375 C 156.414062 -50.101562 169.46875 -60.046875 185.5 -79.265625 C 201.53125 -98.492188 207.882812 -103.046875 204.5625 -92.921875 Z M 26.578125 -41.9375 C 32.117188 -37.96875 38.472656 -38.515625 45.640625 -43.578125 C 52.816406 -48.640625 59.71875 -55.804688 66.34375 -65.078125 C 72.976562 -74.359375 78.554688 -83.640625 83.078125 -92.921875 C 87.597656 -102.203125 90.097656 -109.070312 90.578125 -113.53125 C 77.078125 -120.769531 65.503906 -122.007812 55.859375 -117.25 C 46.222656 -112.488281 38.539062 -104.710938 32.8125 -93.921875 C 27.082031 -83.128906 23.675781 -72.640625 22.59375 -62.453125 C 21.507812 -52.273438 22.835938 -45.4375 26.578125 -41.9375 Z M 26.578125 -41.9375 "/></g></g></g><g fill="#000000" fill-opacity="1"><g transform="translate(750.529274, 384.904772)"><g><path d="M 93.828125 -73.390625 C 90.097656 -65.679688 83.742188 -57.125 74.765625 -47.71875 C 65.785156 -38.320312 55.597656 -32.359375 44.203125 -29.828125 C 32.816406 -27.296875 21.941406 -31.210938 11.578125 -41.578125 C 7.597656 -46.160156 4.671875 -51.429688 2.796875 -57.390625 C 0.929688 -63.359375 0.238281 -69.238281 0.71875 -75.03125 C 0.71875 -76.59375 0.71875 -78.582031 0.71875 -81 C 0.71875 -87.144531 0.988281 -94.253906 1.53125 -102.328125 C 2.070312 -110.398438 3.273438 -117.691406 5.140625 -124.203125 C 7.015625 -130.710938 9.941406 -134.628906 13.921875 -135.953125 C 25.367188 -138.847656 31.578125 -134.875 32.546875 -124.03125 C 32.546875 -120.53125 32.425781 -117.03125 32.1875 -113.53125 C 31.9375 -111.726562 31.8125 -110.039062 31.8125 -108.46875 C 31.570312 -103.414062 31.332031 -98.359375 31.09375 -93.296875 C 31.09375 -89.316406 30.910156 -85.335938 30.546875 -81.359375 C 30.304688 -63.878906 34.222656 -53.484375 42.296875 -50.171875 C 50.378906 -46.859375 59.601562 -50.382812 69.96875 -60.75 C 80.332031 -71.113281 87.109375 -79.726562 90.296875 -86.59375 C 93.492188 -93.46875 95.816406 -94.914062 97.265625 -90.9375 C 98.710938 -86.957031 97.566406 -81.109375 93.828125 -73.390625 Z M 30.1875 -173.203125 C 28.625 -171.878906 26.726562 -171.035156 24.5 -170.671875 C 22.269531 -170.304688 20.3125 -170.488281 18.625 -171.21875 C 17.300781 -172.300781 16.457031 -173.710938 16.09375 -175.453125 C 15.726562 -177.203125 15.546875 -179.285156 15.546875 -181.703125 C 15.546875 -182.179688 15.664062 -182.660156 15.90625 -183.140625 C 16.144531 -185.304688 16.6875 -187.476562 17.53125 -189.65625 C 19.945312 -195.4375 24.953125 -198.085938 32.546875 -197.609375 C 35.191406 -197.242188 37.269531 -196.15625 38.78125 -194.34375 C 40.289062 -192.539062 40.625 -190.4375 39.78125 -188.03125 C 37.96875 -182.125 34.769531 -177.179688 30.1875 -173.203125 Z M 30.1875 -173.203125 "/></g></g></g><g fill="#000000" fill-opacity="1"><g transform="translate(870.403457, 384.904772)"><g><path d="M 140.84375 -88.59375 C 142.882812 -89.675781 144.566406 -90.125 145.890625 -89.9375 C 147.222656 -89.757812 148.21875 -89.21875 148.875 -88.3125 C 149.539062 -87.414062 149.875 -86.515625 149.875 -85.609375 C 149.875 -84.703125 149.753906 -84.066406 149.515625 -83.703125 C 144.453125 -78.398438 138.910156 -72.738281 132.890625 -66.71875 C 124.691406 -58.757812 116.523438 -50.59375 108.390625 -42.21875 C 100.253906 -33.84375 93.410156 -25.976562 87.859375 -18.625 C 84.972656 -15.125 85.097656 -11.804688 88.234375 -8.671875 C 93.535156 -2.765625 98.503906 5.273438 103.140625 15.453125 C 107.785156 25.640625 111.097656 36.519531 113.078125 48.09375 C 115.066406 59.664062 114.828125 70.148438 112.359375 79.546875 C 109.890625 88.953125 104.015625 95.644531 94.734375 99.625 C 80.390625 104.675781 67.367188 103.554688 55.671875 96.265625 C 43.984375 88.972656 37.238281 77.734375 35.4375 62.546875 C 34.59375 48.566406 37.363281 35.191406 43.75 22.421875 C 46.164062 17.359375 48.816406 12.476562 51.703125 7.78125 C 53.273438 4.757812 54.722656 1.925781 56.046875 -0.71875 C 58.941406 -5.425781 57.914062 -8.863281 52.96875 -11.03125 C 43.332031 -15.488281 33.507812 -17.054688 23.5 -15.734375 C 17.113281 -14.398438 10.847656 -14.703125 4.703125 -16.640625 C 2.890625 -17.597656 1.710938 -18.953125 1.171875 -20.703125 C 0.628906 -22.453125 1.019531 -24.109375 2.34375 -25.671875 C 6.925781 -30.253906 11.566406 -34.65625 16.265625 -38.875 C 27.960938 -48.632812 38.78125 -60.289062 48.71875 -73.84375 C 58.664062 -87.40625 66.171875 -101.601562 71.234375 -116.4375 C 71.710938 -118.238281 71.5625 -120.015625 70.78125 -121.765625 C 70 -123.515625 68.820312 -124.929688 67.25 -126.015625 C 63.03125 -129.148438 58.269531 -130.597656 52.96875 -130.359375 C 43.925781 -129.753906 35.789062 -126.800781 28.5625 -121.5 C 23.863281 -118.125 21.84375 -114.894531 22.5 -111.8125 C 23.164062 -108.738281 24.828125 -105.640625 27.484375 -102.515625 C 29.523438 -99.859375 31.390625 -97.082031 33.078125 -94.1875 C 33.328125 -93.101562 32.90625 -91.898438 31.8125 -90.578125 C 30.726562 -89.253906 29.398438 -88.109375 27.828125 -87.140625 C 26.265625 -86.179688 24.820312 -85.578125 23.5 -85.328125 C 18.4375 -84.242188 13.796875 -85.453125 9.578125 -88.953125 C 3.671875 -94.253906 0.597656 -100.550781 0.359375 -107.84375 C 0.117188 -115.132812 2.769531 -121.550781 8.3125 -127.09375 C 12.289062 -130.59375 16.570312 -133.367188 21.15625 -135.421875 C 29.101562 -139.390625 37.175781 -141.707031 45.375 -142.375 C 53.570312 -143.039062 62.070312 -142.707031 70.875 -141.375 C 75.570312 -140.414062 80.210938 -138.609375 84.796875 -135.953125 C 94.796875 -130.046875 98.109375 -121.429688 94.734375 -110.109375 C 90.753906 -98.648438 84.515625 -86.625 76.015625 -74.03125 C 67.523438 -61.4375 59.179688 -51.039062 50.984375 -42.84375 C 49.898438 -41.757812 48.9375 -40.976562 48.09375 -40.5 C 46.28125 -38.570312 44.832031 -36.941406 43.75 -35.609375 C 42.664062 -34.285156 42.242188 -32.960938 42.484375 -31.640625 C 48.390625 -32.242188 53.453125 -31.789062 57.671875 -30.28125 C 61.890625 -28.769531 65.867188 -26.691406 69.609375 -24.046875 C 72.253906 -24.648438 76.289062 -27.539062 81.71875 -32.71875 C 87.144531 -37.90625 93.289062 -44.054688 100.15625 -51.171875 C 107.382812 -58.878906 114.582031 -66.164062 121.75 -73.03125 C 128.925781 -79.90625 135.289062 -85.09375 140.84375 -88.59375 Z M 71.234375 88.765625 C 78.941406 92.023438 83.910156 90.789062 86.140625 85.0625 C 88.378906 79.332031 89.046875 71.492188 88.140625 61.546875 C 87.234375 51.609375 85.632812 42.148438 83.34375 33.171875 C 81.050781 24.191406 79.125 17.957031 77.5625 14.46875 C 76.71875 13.132812 75.84375 11.863281 74.9375 10.65625 C 74.03125 9.457031 72.492188 8.5 70.328125 7.78125 C 60.328125 21.03125 54.539062 35.972656 52.96875 52.609375 C 52.125 60.566406 53.421875 67.796875 56.859375 74.296875 C 60.296875 80.804688 65.085938 85.628906 71.234375 88.765625 Z M 71.234375 88.765625 "/></g></g></g><g fill="#000000" fill-opacity="1"><g transform="translate(41.627867, 400.453404)"><g><path d="M 526.984375 -385.140625 C 533.679688 -380.859375 535.941406 -374.863281 533.765625 -367.15625 C 532.359375 -363.425781 530.523438 -359.925781 528.265625 -356.65625 C 524.535156 -351.363281 520.101562 -346.65625 514.96875 -342.53125 C 490.988281 -322.132812 463.4375 -309.566406 432.3125 -304.828125 C 425.457031 -303.734375 418.609375 -302.523438 411.765625 -301.203125 C 408.648438 -300.503906 405.726562 -300.660156 403 -301.671875 C 401.289062 -302.367188 400.4375 -303.492188 400.4375 -305.046875 C 400.59375 -305.753906 400.84375 -306.4375 401.1875 -307.09375 C 401.539062 -307.757812 401.953125 -308.171875 402.421875 -308.328125 C 404.679688 -309.566406 407.015625 -310.421875 409.421875 -310.890625 C 412.460938 -311.429688 415.535156 -311.976562 418.640625 -312.53125 C 420.898438 -312.6875 423.195312 -312.992188 425.53125 -313.453125 C 440.945312 -316.253906 455.070312 -321.410156 467.90625 -328.921875 C 480.75 -336.429688 492.660156 -345.753906 503.640625 -356.890625 C 506.910156 -360.003906 509.398438 -363.703125 511.109375 -367.984375 C 512.972656 -373.117188 511.535156 -376.773438 506.796875 -378.953125 C 500.566406 -381.210938 494.222656 -382.421875 487.765625 -382.578125 C 479.671875 -382.578125 471.691406 -382.578125 463.828125 -382.578125 C 460.398438 -382.578125 456.972656 -382.578125 453.546875 -382.578125 C 433.160156 -382.578125 412.867188 -381.503906 392.671875 -379.359375 C 372.472656 -377.222656 352.296875 -374.710938 332.140625 -371.828125 C 300.078125 -367.703125 268.128906 -362.722656 236.296875 -356.890625 C 236.453125 -352.609375 236.53125 -348.328125 236.53125 -344.046875 C 236.53125 -289.796875 236.53125 -235.625 236.53125 -181.53125 C 236.53125 -163.707031 236.53125 -145.882812 236.53125 -128.0625 C 236.53125 -110.632812 236.53125 -93.242188 236.53125 -75.890625 C 236.53125 -25.765625 236.53125 24.394531 236.53125 74.59375 C 236.53125 87.90625 236.296875 101.253906 235.828125 114.640625 C 235.828125 121.804688 232.398438 124.804688 225.546875 123.640625 C 222.128906 123.085938 220.144531 121.21875 219.59375 118.03125 C 219.59375 116.625 219.515625 115.222656 219.359375 113.828125 C 218.816406 107.367188 218.546875 100.789062 218.546875 94.09375 C 218.390625 50.976562 218.3125 7.742188 218.3125 -35.609375 C 218.3125 -141.609375 218.3125 -247.613281 218.3125 -353.625 C 218 -353.382812 217.648438 -353.265625 217.265625 -353.265625 C 216.253906 -353.109375 215.316406 -352.953125 214.453125 -352.796875 C 189.085938 -347.816406 163.988281 -341.898438 139.15625 -335.046875 C 114.332031 -328.203125 89.859375 -320.148438 65.734375 -310.890625 C 57.171875 -307.703125 48.6875 -304.125 40.28125 -300.15625 C 37.707031 -298.988281 35.253906 -297.859375 32.921875 -296.765625 C 28.253906 -295.054688 24.554688 -291.984375 21.828125 -287.546875 C 19.960938 -284.816406 17.140625 -283.410156 13.359375 -283.328125 C 9.585938 -283.253906 6.265625 -284.3125 3.390625 -286.5 C 1.128906 -288.59375 0.851562 -290.847656 2.5625 -293.265625 C 4.4375 -295.828125 6.695312 -298.003906 9.34375 -299.796875 C 11.988281 -301.585938 14.789062 -303.265625 17.75 -304.828125 C 32.457031 -312.296875 47.4375 -318.789062 62.6875 -324.3125 C 101.53125 -338.476562 141.070312 -349.957031 181.3125 -358.75 C 193.6875 -361.320312 206.019531 -363.773438 218.3125 -366.109375 C 218.46875 -368.679688 218.625 -371.171875 218.78125 -373.578125 C 219.320312 -376.847656 220.914062 -379.125 223.5625 -380.40625 C 226.207031 -381.695312 229.164062 -381.5625 232.4375 -380 C 234.851562 -378.675781 235.984375 -376.613281 235.828125 -373.8125 C 235.828125 -372.332031 235.90625 -370.816406 236.0625 -369.265625 C 265.632812 -374.398438 295.328125 -379.03125 325.140625 -383.15625 C 356.109375 -387.59375 387.203125 -391.019531 418.421875 -393.4375 C 442.703125 -395.144531 467.019531 -395.375 491.375 -394.125 C 499.238281 -393.664062 507.023438 -392.460938 514.734375 -390.515625 C 519.171875 -389.503906 523.253906 -387.710938 526.984375 -385.140625 Z M 526.984375 -385.140625 "/></g></g></g></svg>