<svg xmlns="http://www.w3.org/2000/svg" width="500" zoomAndPan="magnify" viewBox="0 0 375 375" height="500" preserveAspectRatio="xMidYMid meet" fill="#e21661" xmlns:v="https://vecta.io/nano"><path d="M190.94 215.25c-1.125 3.449-3.359 7.402-6.703 11.859s-7.523 7.328-12.531 8.609c-5.012 1.273-9.344 1.094-13-.531s-5.672-5.969-6.047-13.031c-4.148 8.055-8.102 13.211-11.859 15.469-3.762 2.25-7.672 3.109-11.734 2.578-4.605-.738-7.715-2.523-9.328-5.359-1.625-2.832-2.172-6.109-1.641-9.828a34.17 34.17 0 0 1 3.391-10.687c1.352-2.551 3.227-4.914 5.625-7.094 2.406-2.176 4.926-3.879 7.563-5.109 3.238-1.645 6.5-2.426 9.781-2.344 3.289.086 6.805 1.172 10.547 3.266.082.086.125.008.125-.234 0-.375.086-.836.266-1.391a2.66 2.66 0 0 1 .969-1.328c1.227-.906 2.68-1.359 4.359-1.359 1.688 0 2.984.844 3.891 2.531.164 2.18-.059 4.949-.672 8.313-1.355 7.398-1.355 12.719 0 15.969 1.352 3.242 3.742 4.75 7.172 4.531 3.426-.227 7.867-3.617 13.328-10.172 5.469-6.551 7.633-8.102 6.5-4.656zm-60.64 17.375c1.883 1.355 4.047 1.172 6.484-.547 2.445-1.727 4.801-4.172 7.063-7.328 2.258-3.164 4.16-6.332 5.703-9.5s2.395-5.504 2.563-7.016c-4.605-2.469-8.555-2.891-11.844-1.266-3.281 1.617-5.902 4.262-7.859 7.938-1.949 3.68-3.109 7.258-3.484 10.734-.367 3.469.094 5.797 1.375 6.984zm136.553-17.375c-1.125 3.449-3.359 7.402-6.703 11.859s-7.523 7.328-12.531 8.609c-5.012 1.273-9.344 1.094-13-.531s-5.672-5.969-6.047-13.031c-4.148 8.055-8.102 13.211-11.859 15.469-3.762 2.25-7.672 3.109-11.734 2.578-4.605-.738-7.715-2.523-9.328-5.359-1.625-2.832-2.172-6.109-1.641-9.828a34.17 34.17 0 0 1 3.391-10.687c1.352-2.551 3.227-4.914 5.625-7.094 2.406-2.176 4.926-3.879 7.563-5.109 3.238-1.645 6.5-2.426 9.781-2.344 3.289.086 6.805 1.172 10.547 3.266.082.086.125.008.125-.234 0-.375.086-.836.266-1.391a2.66 2.66 0 0 1 .969-1.328c1.227-.906 2.68-1.359 4.359-1.359 1.688 0 2.984.844 3.891 2.531.164 2.18-.059 4.949-.672 8.313-1.355 7.398-1.355 12.719 0 15.969 1.352 3.242 3.742 4.75 7.172 4.531 3.426-.227 7.867-3.617 13.328-10.172 5.469-6.551 7.633-8.102 6.5-4.656zm-60.641 17.375c1.883 1.355 4.047 1.172 6.484-.547 2.445-1.727 4.801-4.172 7.063-7.328 2.258-3.164 4.16-6.332 5.703-9.5s2.395-5.504 2.563-7.016c-4.605-2.469-8.555-2.891-11.844-1.266-3.281 1.617-5.902 4.262-7.859 7.938-1.949 3.68-3.109 7.258-3.484 10.734-.367 3.469.094 5.797 1.375 6.984zm98.819-10.719c-1.273 2.625-3.437 5.543-6.5 8.75-3.055 3.211-6.523 5.246-10.406 6.109-3.875.855-7.586-.484-11.125-4.016-1.355-1.562-2.352-3.359-2.984-5.391s-.871-4.031-.703-6v-2.047c0-2.094.086-4.516.266-7.266.188-2.75.598-5.234 1.234-7.453.645-2.219 1.645-3.551 3-4 3.895-.988 6.008.367 6.344 4.063a52.31 52.31 0 0 1-.125 3.578 12.45 12.45 0 0 0-.125 1.719l-.25 5.172a44.11 44.11 0 0 1-.187 4.063c-.074 5.961 1.266 9.508 4.016 10.641 2.75 1.125 5.891-.078 9.422-3.609s5.836-6.469 6.922-8.812c1.094-2.344 1.883-2.832 2.375-1.469.5 1.355.109 3.344-1.172 5.969zm-21.672-34.016c-.543.461-1.195.75-1.953.875-.762.117-1.43.055-2-.187-.449-.375-.734-.859-.859-1.453s-.187-1.301-.187-2.125a1.09 1.09 0 0 1 .125-.5c.082-.738.27-1.477.563-2.219.813-1.969 2.516-2.867 5.109-2.703.906.125 1.613.496 2.125 1.109s.625 1.336.344 2.156c-.625 2.012-1.715 3.695-3.266 5.047zm78.557 28.845c.695-.375 1.27-.531 1.719-.469.457.063.797.25 1.016.563.227.305.344.609.344.922 0 .305-.043.516-.125.641l-5.672 5.797a400.08 400.08 0 0 0-8.344 8.344c-2.773 2.855-5.105 5.539-7 8.047-.98 1.188-.937 2.32.125 3.391 1.813 2.012 3.508 4.75 5.094 8.219s2.711 7.172 3.391 11.109c.676 3.945.594 7.523-.25 10.734s-2.852 5.488-6.016 6.844c-4.887 1.719-9.324 1.332-13.312-1.156-3.98-2.48-6.277-6.309-6.891-11.484-.293-4.762.648-9.32 2.828-13.672.82-1.73 1.727-3.391 2.719-4.984l1.469-2.906c.988-1.602.641-2.773-1.047-3.516-3.281-1.508-6.625-2.039-10.031-1.594-2.18.449-4.312.344-6.406-.312-.625-.32-1.031-.781-1.219-1.375-.18-.602-.043-1.172.406-1.703a118.65 118.65 0 0 1 4.75-4.5c3.977-3.32 7.66-7.289 11.047-11.906 3.395-4.625 5.957-9.469 7.688-14.531a2.67 2.67 0 0 0-.172-1.812c-.262-.594-.656-1.078-1.187-1.453a7.4 7.4 0 0 0-4.875-1.469 15.64 15.64 0 0 0-8.312 3.016c-1.605 1.148-2.293 2.246-2.062 3.297s.789 2.109 1.688 3.172a28.74 28.74 0 0 1 1.922 2.844c.082.367-.062.777-.437 1.234-.367.449-.82.84-1.359 1.172-.531.324-1.023.527-1.469.609-1.73.367-3.312-.047-4.75-1.234-2.012-1.812-3.059-3.957-3.141-6.437-.086-2.488.816-4.676 2.703-6.562 1.363-1.195 2.82-2.145 4.375-2.844 2.719-1.352 5.473-2.141 8.266-2.359 2.789-.227 5.688-.117 8.688.328 1.602.336 3.18.953 4.734 1.859 3.414 2.012 4.547 4.945 3.391 8.797-1.355 3.906-3.48 8.008-6.375 12.297s-5.742 7.836-8.531 10.625c-.367.375-.695.648-.984.813-.617.656-1.109 1.215-1.484 1.672-.367.449-.508.898-.422 1.344 2.008-.207 3.734-.051 5.172.469a16.54 16.54 0 0 1 4.063 2.125c.906-.207 2.281-1.191 4.125-2.953 1.852-1.77 3.953-3.867 6.297-6.297 2.457-2.625 4.906-5.109 7.344-7.453 2.445-2.344 4.617-4.109 6.516-5.297zm-23.719 60.438c2.625 1.113 4.316.691 5.078-1.266.758-1.949.984-4.621.672-8.016-.305-3.387-.844-6.609-1.625-9.672-.781-3.055-1.437-5.18-1.969-6.375a23.09 23.09 0 0 0-.906-1.297c-.305-.406-.824-.73-1.562-.969-3.406 4.508-5.383 9.602-5.922 15.281-.281 2.707.16 5.172 1.328 7.391 1.176 2.219 2.813 3.859 4.906 4.922zM236.325 76.888c2.945 1.875 3.941 4.512 2.984 7.906a21.32 21.32 0 0 1-2.406 4.625 31.02 31.02 0 0 1-5.859 6.219c-10.555 8.969-22.68 14.5-36.375 16.594-3.023.48-6.039 1.012-9.047 1.594-1.367.305-2.652.234-3.859-.203-.75-.312-1.125-.812-1.125-1.5a3.97 3.97 0 0 1 .328-.891c.156-.289.336-.473.547-.547a10.79 10.79 0 0 1 3.078-1.125l4.063-.719a23.43 23.43 0 0 0 3.031-.422c6.781-1.227 12.992-3.492 18.641-6.797 5.656-3.301 10.898-7.406 15.734-12.312 1.438-1.363 2.531-2.988 3.281-4.875.82-2.258.191-3.867-1.891-4.828-2.742-.988-5.531-1.52-8.375-1.594h-10.531-4.531c-8.969 0-17.902.477-26.797 1.422a748.02 748.02 0 0 0-26.625 3.297 814.77 814.77 0 0 0-42.188 6.578 151.93 151.93 0 0 1 .109 5.656v71.516 23.531 22.969V279.2a502.44 502.44 0 0 1-.312 17.625c0 3.145-1.508 4.461-4.516 3.953-1.512-.242-2.387-1.062-2.625-2.469a16.16 16.16 0 0 0-.109-1.844c-.242-2.844-.359-5.742-.359-8.687l-.094-57.078V90.747a.75.75 0 0 1-.469.156l-1.234.203a452.76 452.76 0 0 0-33.141 7.828c-10.93 3.012-21.699 6.555-32.312 10.625a150.13 150.13 0 0 0-11.203 4.719l-3.234 1.5c-2.055.75-3.68 2.102-4.875 4.047-.824 1.211-2.07 1.828-3.734 1.859-1.656.031-3.121-.43-4.391-1.391-.992-.926-1.109-1.922-.359-2.984a11.73 11.73 0 0 1 2.984-2.859c1.164-.789 2.398-1.531 3.703-2.219a174.69 174.69 0 0 1 19.781-8.578A401.87 401.87 0 0 1 84.2 88.497l16.297-3.234.203-3.297c.238-1.437.938-2.437 2.094-3 1.164-.562 2.473-.504 3.922.172 1.063.586 1.555 1.496 1.484 2.734a18.59 18.59 0 0 0 .109 2 1147.8 1147.8 0 0 1 39.188-6.109c13.633-1.957 27.32-3.469 41.063-4.531 10.676-.75 21.379-.852 32.109-.312 3.457.211 6.879.742 10.266 1.594 1.957.449 3.754 1.242 5.391 2.375zm0 0"/></svg>